<svg width="40" height="41" viewBox="0 0 40 41" fill="none" xmlns="http://www.w3.org/2000/svg">
<path d="M16.0163 14.1757L13.9834 26.1053H17.2346L19.2692 14.1757H16.0163Z" fill="#858FA4"/>
<path d="M11.2573 14.189L8.07291 22.3247L7.7334 21.0963C7.1054 19.6161 5.32256 17.4904 3.22949 16.1508L6.14123 26.0994L9.58146 26.0935L14.7017 14.1865L11.2573 14.189Z" fill="#858FA4"/>
<path d="M6.49914 15.0428C6.31016 14.3161 5.76243 14.0995 5.08258 14.0736H0.0418113L0 14.3111C3.92273 15.2627 6.51838 17.5557 7.59543 20.3127L6.49914 15.0428Z" fill="#858FA4"/>
<path d="M25.859 16.4628C26.9227 16.4461 27.6937 16.6785 28.2924 16.9194L28.5859 17.0573L29.0258 14.4717C28.3819 14.2301 27.3726 13.9708 26.1132 13.9708C22.9004 13.9708 20.6359 15.5889 20.6184 17.9078C20.5975 19.6212 22.2314 20.5778 23.4657 21.149C24.7326 21.7343 25.1574 22.1065 25.1515 22.6291C25.1415 23.4277 24.1414 23.794 23.2073 23.794C21.9053 23.794 21.2138 23.6142 20.1459 23.1693L19.7269 22.9786L19.2695 25.6487C20.0305 25.9824 21.4345 26.2692 22.8921 26.2842C26.3097 26.2842 28.5307 24.6854 28.5541 22.2076C28.5684 20.8521 27.7012 19.8177 25.8222 18.9689C24.6849 18.4154 23.9892 18.0474 23.9959 17.4888C23.9959 16.9929 24.5863 16.4628 25.859 16.4628Z" fill="#858FA4"/>
<path d="M37.3691 14.1891H34.8571C34.0769 14.1891 33.4966 14.4015 33.1537 15.1792L28.3262 26.112H31.7405C31.7405 26.112 32.2974 24.6419 32.4237 24.32C32.7975 24.32 36.1148 24.325 36.5872 24.325C36.6842 24.7414 36.9836 26.112 36.9836 26.112H39.9999L37.3691 14.1891ZM33.3594 21.8782C33.627 21.1933 34.6547 18.5441 34.6547 18.5441C34.6372 18.5768 34.9198 17.8543 35.0879 17.4052L35.307 18.4338C35.307 18.4338 35.93 21.2819 36.0604 21.8782H33.3594Z" fill="#858FA4"/>
</svg>
