<svg width="40" height="41" viewBox="0 0 40 41" fill="none" xmlns="http://www.w3.org/2000/svg">
<path d="M40 20.1279C40 13.6118 34.7097 8.25696 28.129 8.25696C25.2903 8.25696 22.7097 9.2247 20.6452 10.9021C22.1935 12.386 23.4194 14.257 24 16.386H23.0323C22.3871 14.515 21.3548 12.8376 19.9355 11.4828C18.5161 12.8376 17.4839 14.515 16.8387 16.386H15.871C16.5161 14.257 17.6774 12.386 19.2258 10.9021C17.1613 9.2247 14.6452 8.25696 11.8065 8.25696C5.29032 8.25696 0 13.6118 0 20.1279C0 26.6441 5.29032 31.9989 11.871 31.9989C14.7097 31.9989 17.2903 30.9666 19.2903 29.3537C17.7419 27.8699 16.5806 25.9989 15.9355 23.8699H16.9032C17.5484 25.7408 18.5806 27.4183 20 28.7731C21.4194 27.4183 22.5161 25.7408 23.0968 23.8699H24.0645C23.4194 25.9989 22.2581 27.8699 20.7097 29.3537C22.7742 31.0312 25.3548 31.9989 28.1935 31.9989C34.7097 31.9989 40 26.6441 40 20.1279Z" fill="#858FA4"/>
<path d="M31.2905 22.9021L32.1292 18.515H33.1615L33.2905 18.9666C33.4841 18.7731 33.8067 18.515 34.4518 18.515L34.1292 19.6763C33.8067 19.6763 33.2905 19.6118 32.9034 20.9021L32.5163 22.9021H31.2905Z" fill="#1A1A25"/>
<path d="M15.4839 17.4182H16.6452L16.3871 18.5795H17.0323L16.8387 19.4827H16.2581L15.9355 21.2247C15.871 21.5472 15.9355 21.8698 16.5807 21.7408L16.4516 22.7085C16.1936 22.9021 15.871 22.9021 15.5484 22.9021C15.2903 22.9021 14.3871 22.7085 14.5807 21.5472L15.4839 17.4182Z" fill="#1A1A25"/>
<path d="M20.6457 20.9666C20.7747 20.2569 21.0973 18.515 19.0328 18.515C17.0973 18.515 16.8392 20.4505 16.8392 20.7086C16.7747 20.9666 16.7747 22.9021 18.8392 22.9021C19.3553 22.9021 20.065 22.8376 20.3876 22.7086L20.5811 21.8053C20.3876 21.8699 19.7424 21.9344 19.2263 21.9344C18.7747 21.9344 18.0005 21.9344 18.1295 20.9666H20.6457" fill="#1A1A25"/>
<path d="M14.323 19.5473L14.581 18.6441C14.0004 18.4506 13.5488 18.4506 13.4197 18.4506C13.2262 18.4506 11.8068 18.4506 11.6133 19.4828C11.4197 20.3215 11.7423 20.6441 12.0004 20.7731C12.452 20.9667 12.7101 21.1602 12.9681 21.2893C13.2907 21.4183 13.2262 21.9344 12.8391 21.9344C12.6456 21.9344 11.8714 21.9989 11.2907 21.8054L11.0972 22.7086C11.6778 22.8377 12.0649 22.8377 12.5165 22.8377C12.8391 22.8377 14.2585 22.9022 14.452 21.6119C14.581 20.9667 14.2585 20.7086 14.0649 20.5151C13.8068 20.386 13.4843 20.128 13.2262 20.0635C12.9681 19.9344 12.7746 19.5473 13.2262 19.4183C13.4197 19.4828 14.0004 19.4828 14.323 19.5473Z" fill="#1A1A25"/>
<path d="M6.5811 22.9022L7.61336 17.6118H5.61336L4.19401 20.8376L3.93594 17.6118H2.06497L1.03271 22.9022H2.19401L2.9682 19.0957L3.29078 22.9022H4.38755L6.06497 19.1602L5.3553 22.9022H6.5811Z" fill="#1A1A25"/>
<path d="M7.93591 18.644L7.74236 19.6117C8.06494 19.6117 8.83913 19.4827 9.22623 19.4827C9.61332 19.4827 10.1295 19.4182 9.9359 20.0634C9.61332 20.0634 7.48429 19.7408 7.16171 21.6118C7.03268 22.515 7.80687 22.9666 8.38752 22.9666C8.96816 22.9666 9.16171 22.8376 9.35526 22.7085L9.48429 22.9666H10.5811L11.0327 20.5795C11.1617 19.9988 11.3553 18.5795 9.35526 18.5795C9.0972 18.515 8.7101 18.515 7.93591 18.644Z" fill="#1A1A25"/>
<path d="M27.226 18.8376C26.9035 18.6441 26.7099 18.6441 26.3228 18.6441C25.9357 18.6441 25.0325 19.0312 24.9035 20.0634C24.7099 21.3537 25.5486 21.9344 26.7744 21.5473L27.097 22.6441C26.7099 22.8376 26.3228 22.9021 25.6777 22.9021C24.4519 22.9021 23.097 21.8054 23.6777 19.5473C24.1293 17.9344 25.5486 17.2892 26.3873 17.3537C27.3551 17.4183 27.7422 17.7408 28.0002 18.0634L27.226 18.8376Z" fill="#1A1A25"/>
<path d="M37.3557 19.0312C37.0976 18.8376 36.9686 18.515 36.4524 18.515C35.8073 18.515 34.775 18.386 34.1944 20.386C33.8073 21.7409 34.5815 22.9021 35.4202 22.9021C35.8073 22.9021 36.1944 22.7086 36.4524 22.5796L36.5815 22.9021H37.8718L38.9041 17.3538H37.6782L37.3557 19.0312Z" fill="#1A1A25"/>
<path d="M28.0653 18.644L27.8718 19.6117C28.1943 19.6117 28.9685 19.4827 29.3556 19.4827C29.7427 19.4827 30.1943 19.4182 30.0653 20.0634C29.7427 20.0634 27.6137 19.7408 27.2911 21.6118C27.1621 22.515 27.9363 22.9666 28.5169 22.9666C29.0976 22.9666 29.2911 22.8376 29.4847 22.7085L29.6137 22.9666H30.7105L31.1621 20.5795C31.2911 19.9988 31.4847 18.5795 29.4847 18.5795C29.2911 18.515 28.8395 18.515 28.0653 18.644Z" fill="#1A1A25"/>
<path d="M18.1289 20.128H19.6128C19.6773 19.6763 19.5483 19.3538 19.0966 19.3538C18.5805 19.3538 18.2579 19.6118 18.1289 20.128Z" fill="#858FA4"/>
<path d="M9.74205 20.9667C9.5485 20.9667 9.09689 20.8377 8.70979 21.0957C8.32269 21.3538 8.19366 21.8054 8.64527 21.9344C9.03237 22.0635 9.5485 21.8054 9.67753 21.4183L9.74205 20.9667Z" fill="#858FA4"/>
<path d="M36.9675 20.8376C37.0966 20.4505 37.032 19.9344 36.903 19.7408C36.5159 19.2247 35.6772 19.6118 35.4192 20.5795C35.2256 21.2247 35.6127 21.6763 35.9998 21.6763C36.4514 21.6763 36.7095 21.3537 36.9675 20.8376Z" fill="#858FA4"/>
<path d="M29.9354 20.9667C29.7418 20.9667 29.2902 20.8377 28.9031 21.0957C28.5161 21.3538 28.387 21.8054 28.8386 21.9344C29.2257 22.0635 29.8064 21.8054 29.8709 21.4183L29.9354 20.9667Z" fill="#858FA4"/>
<path d="M20.645 22.9022L21.4837 18.5796H22.516L22.645 19.0312C22.8386 18.8377 23.1612 18.5796 23.8063 18.5796L23.4837 19.7409C23.2257 19.7409 22.645 19.6764 22.2579 20.9667L21.8708 22.9667H20.645" fill="#1A1A25"/>
<path d="M11.8708 8.25696C6.64502 8.25696 2.19341 11.6763 0.64502 16.386H15.9999C16.645 14.257 17.8063 12.386 19.3547 10.9021C17.2257 9.28922 14.645 8.25696 11.8708 8.25696Z" fill="#858FA4"/>
<path d="M20.0001 11.5472C18.5807 12.9021 17.5485 14.515 16.9033 16.4505H23.0969C22.4517 14.5795 21.4195 12.9021 20.0001 11.5472Z" fill="#858FA4"/>
<path d="M28.1289 8.25696C25.2902 8.25696 22.7095 9.2247 20.645 10.9021C22.1934 12.386 23.3547 14.257 23.9999 16.386H39.3547C37.8708 11.6763 33.4192 8.25696 28.1289 8.25696Z" fill="#858FA4"/>
</svg>
