<svg width="30" height="33" viewBox="0 0 30 33" fill="none" xmlns="http://www.w3.org/2000/svg">
<path d="M22.1464 15.8802L19.8047 17.996L21.9191 20.3362L24.2609 18.2205L22.1464 15.8802Z" fill="#858FA4"/>
<path d="M17.4804 17.784L14.3574 20.5951L17.1699 23.7195L20.2928 20.9084L17.4804 17.784Z" fill="#858FA4"/>
<path d="M26.3704 15.1357L24.8105 16.5416L26.2165 18.1015L27.7764 16.6956L26.3704 15.1357Z" fill="#858FA4"/>
<path d="M17.9847 6.22811L15.6406 8.33813L17.7506 10.6822L20.0947 8.57216L17.9847 6.22811Z" fill="#858FA4"/>
<path d="M24.3731 10.4742L22.8164 11.8807L24.2242 13.4389L25.781 12.0324L24.3731 10.4742Z" fill="#858FA4"/>
<path d="M15.2646 12.3712L12.1387 15.1851L14.9511 18.3095L18.077 15.4957L15.2646 12.3712Z" fill="#858FA4"/>
<path d="M13.0307 7.04702L9.90625 9.8595L12.7187 12.9839L15.8431 10.1714L13.0307 7.04702Z" fill="#858FA4"/>
<path d="M20.1371 10.9419L17.7988 13.0524L19.9133 15.3951L22.2516 13.2846L20.1371 10.9419Z" fill="#858FA4"/>
<path d="M22.3685 5.84099L20.8086 7.24695L22.2145 8.80683L23.7744 7.40088L22.3685 5.84099Z" fill="#858FA4"/>
<path d="M24.2103 20.616L21.8672 22.7273L23.9798 25.0719L26.3229 22.9606L24.2103 20.616Z" fill="#858FA4"/>
<path d="M20.1003 23.272L17.0463 26.088L11.8903 20.35L13.3243 19.088L9.7143 15.046L11.1563 13.782L7.4923 9.74396L13.2103 4.59596L15.0263 6.58396L18.0923 3.84796L19.9043 5.72596L21.1123 4.64396C20.8423 4.48796 20.5723 4.34396 20.2983 4.21396C18.5563 3.36195 16.6003 2.88196 14.5403 2.88196C7.3063 2.88196 1.4043 8.78196 1.4043 16.018C1.4043 23.252 7.3063 29.152 14.5403 29.152C16.8903 29.152 19.1043 28.53 21.0143 27.44C21.6443 27.084 22.2183 26.698 22.7423 26.292L20.1003 23.272Z" fill="#858FA4"/>
</svg>
