<svg width="55" height="21" viewBox="0 0 55 21" fill="none" xmlns="http://www.w3.org/2000/svg">
<path d="M10.5428 4.17129C10.3503 3.78504 10.0457 3.46647 9.66761 3.22725C9.27319 2.9857 8.80759 2.81649 8.27547 2.71614C7.73402 2.61812 7.10855 2.57377 6.38389 2.56677L3.03831 2.56911C2.69057 2.57377 2.34983 2.8445 2.26814 3.18057L0.017144 12.9851C-0.0645408 13.3165 0.153674 13.5942 0.501418 13.5942H2.10361C2.45135 13.5942 2.79559 13.3247 2.87261 12.9851L3.42223 10.6046C3.49575 10.2731 3.83882 9.99659 4.19007 9.99659H4.64867C6.60794 9.99425 8.12494 9.59399 9.21485 8.79232C10.3106 7.98947 10.8509 6.92874 10.8509 5.61478C10.8497 5.03949 10.7552 4.55638 10.5428 4.17129ZM7.08754 7.37451C6.60327 7.72925 5.92995 7.90662 5.06176 7.90662H4.66967C4.32076 7.90662 4.10722 7.63123 4.18307 7.29515L4.66501 5.21336C4.73269 4.87962 5.08393 4.60306 5.42818 4.60539L5.95329 4.60189C6.56593 4.60189 7.03386 4.70808 7.3466 4.91346C7.65584 5.1165 7.81104 5.43974 7.8087 5.868C7.81804 6.51915 7.56948 7.01976 7.08754 7.37451Z" fill="#858FA4"/>
<path d="M18.2692 5.57276C17.6648 5.23202 16.7102 5.06165 15.4056 5.06165C14.7603 5.06165 14.1173 5.11182 13.4674 5.21218C12.9877 5.28569 12.9411 5.2997 12.6458 5.36388C12.0367 5.49691 11.941 6.10488 11.941 6.10488L11.745 6.91122C11.6341 7.42584 11.9305 7.406 12.0542 7.36282C12.3203 7.28347 12.4685 7.20179 13.0123 7.08043C13.5315 6.96257 14.0788 6.87388 14.5129 6.87971C15.1536 6.87971 15.6437 6.9474 15.9704 7.08509C16.2925 7.22512 16.4535 7.46551 16.4535 7.81326L16.4255 8.03964L16.1945 8.182C15.2854 8.23918 14.6284 8.3232 13.8314 8.43873C13.0519 8.54725 12.3681 8.73746 11.7998 8.99768C11.1895 9.26608 10.7368 9.62666 10.4205 10.0853C10.1148 10.5462 9.96191 11.1052 9.96191 11.761C9.96191 12.3783 10.1836 12.8882 10.6142 13.2826C11.0472 13.6701 11.6189 13.8591 12.3028 13.8591C12.7357 13.8568 13.0706 13.8229 13.3087 13.7657L14.0847 13.4985L14.7416 13.1344L15.3461 12.7353L15.3543 12.747L15.2936 13.0037L15.2901 13.0142V13.0166C15.2247 13.3293 15.4138 13.586 15.7184 13.6164L15.7242 13.6234H15.7522H16.981H17.212L17.233 13.614C17.5528 13.5767 17.8527 13.32 17.9227 13.0142L19.0908 7.95795L19.1514 7.54603L19.1794 7.15978C19.1841 6.44329 18.8749 5.91233 18.2692 5.57276ZM15.6857 11.258L15.436 11.5871L14.8058 11.9127C14.5094 12.0329 14.2282 12.0935 13.968 12.0935C13.5735 12.0935 13.2643 12.0364 13.0554 11.9197L12.7462 11.3187C12.7462 10.9931 12.8209 10.7352 12.9807 10.5369L13.6599 10.0748C13.9505 9.97673 14.3052 9.89388 14.716 9.8367C15.0824 9.79119 15.8059 9.70834 15.9004 9.70601L16.0112 9.90088C15.9891 10.0117 15.7837 10.8706 15.6857 11.258Z" fill="#858FA4"/>
<path d="M47.3703 5.57979C46.7624 5.23904 45.809 5.0675 44.5079 5.0675C43.8626 5.0675 43.2184 5.11768 42.5708 5.22154C42.09 5.29155 42.0421 5.30673 41.7457 5.36974C41.1378 5.5016 41.0433 6.1119 41.0433 6.1119L40.8472 6.91708C40.7375 7.4317 41.0269 7.40836 41.1623 7.36868C41.4295 7.28933 41.573 7.21115 42.1122 7.08512C42.6291 6.96843 43.1811 6.88207 43.6163 6.88441C44.2546 6.88441 44.7447 6.95326 45.0703 7.09095C45.3947 7.23098 45.5534 7.4737 45.5534 7.81795L45.5289 8.04316L45.3002 8.18903C44.3818 8.24388 43.7237 8.32789 42.9348 8.44342C42.1577 8.55194 41.4715 8.74098 40.9021 9.00237C40.2941 9.27193 39.8355 9.63251 39.5228 10.0923C39.2135 10.5532 39.063 11.111 39.063 11.761C39.063 12.383 39.2824 12.8929 39.7188 13.285C40.1541 13.6712 40.72 13.8649 41.4038 13.8649C41.8344 13.8603 42.1693 13.8323 42.4086 13.7704L43.1822 13.5067L43.8451 13.1426L44.4448 12.7389L44.4554 12.7517L44.4005 13.0108L44.3947 13.0154L44.397 13.0201C44.3247 13.3328 44.5149 13.5919 44.8229 13.6199L44.8253 13.6257H44.8533C45.0551 13.6257 45.753 13.6257 46.0855 13.6257H46.3119L46.3364 13.6176C46.6527 13.5791 46.9514 13.3223 47.0179 13.0131L48.1895 7.96381L48.2514 7.54955L48.2852 7.16213C48.2864 6.44798 47.9806 5.91936 47.3703 5.57979ZM44.7926 11.265L44.5324 11.5976L43.9081 11.9209C43.6117 12.0399 43.3293 12.1017 43.0737 12.1017C42.6665 12.1017 42.3654 12.0434 42.1623 11.9267L41.8496 11.3281C41.8496 11.0013 41.9255 10.7458 42.0783 10.5439C42.2335 10.3537 42.4704 10.1973 42.7645 10.0829C43.0515 9.98493 43.4063 9.90557 43.8194 9.84606C44.1835 9.80055 44.9046 9.71537 44.998 9.7142L45.1112 9.90908C45.0948 10.0199 44.8883 10.8753 44.7926 11.265Z" fill="#858FA4"/>
<path d="M39.6394 4.20737C39.4387 3.81879 39.1376 3.50488 38.7572 3.25983C38.3674 3.01711 37.9053 2.84674 37.365 2.74872C36.8341 2.6542 36.2005 2.60285 35.4805 2.60168L32.1302 2.60402C31.7813 2.60985 31.4464 2.88058 31.3659 3.21315L29.1126 13.0223C29.0309 13.3549 29.2549 13.6303 29.5957 13.6303L31.2002 13.628C31.5409 13.6303 31.8898 13.3572 31.9704 13.0212L32.513 10.6395C32.5923 10.3081 32.9366 10.0292 33.2831 10.0315H33.7417C35.7033 10.0315 37.2239 9.62774 38.3184 8.8284C39.4002 8.01972 39.9475 6.96132 39.9475 5.64619C39.9416 5.07323 39.8424 4.58896 39.6394 4.20737ZM36.1841 7.41525C35.701 7.76299 35.0265 7.94037 34.163 7.94037H33.7639C33.4197 7.94387 33.1968 7.66381 33.2738 7.33007L33.7592 5.25177C33.8304 4.9192 34.1782 4.6403 34.5248 4.6438L35.044 4.6403C35.6602 4.6438 36.1223 4.74532 36.4373 4.9507C36.7512 5.15608 36.8994 5.47815 36.9029 5.90525C36.9064 6.55639 36.6649 7.05817 36.1841 7.41525Z" fill="#858FA4"/>
<path d="M53.3774 3.2914C53.4509 2.95649 53.2409 2.6846 52.8966 2.68927H51.4613C51.1673 2.68927 50.9024 2.90748 50.7728 3.17588L50.6935 3.29957L50.6211 3.61697L48.6152 12.7353L48.5498 13.0154L48.5522 13.0224C48.4857 13.3223 48.67 13.5487 48.9548 13.5918L48.9793 13.6257H50.4694C50.7612 13.6257 51.0354 13.404 51.1603 13.1309L51.2373 13.0142L53.3821 3.29257L53.3774 3.2914Z" fill="#858FA4"/>
<path d="M29.1564 5.18421C28.7771 5.18888 27.2356 5.18421 27.2356 5.18421C26.8902 5.18421 26.4468 5.46311 26.2274 5.79568C26.2274 5.79568 23.9332 9.73289 23.7104 10.1285L23.4443 10.125L22.7301 5.82252C22.6508 5.48411 22.2972 5.19472 21.8573 5.19472L20.422 5.19705C20.0766 5.19705 19.8642 5.47244 19.9424 5.80852C19.9424 5.80852 21.0323 12.0107 21.2505 13.4705C21.352 14.2757 21.2376 14.4193 21.2376 14.4193L19.8187 16.8908C19.6086 17.2269 19.7218 17.5011 20.0661 17.5011L21.7254 17.4988C22.0708 17.4988 22.5248 17.2269 22.7301 16.8896L29.1132 6.09325C29.1132 6.09442 29.727 5.17138 29.1564 5.18421Z" fill="#858FA4"/>
</svg>
